<?xml version="1.0" encoding="utf-8"?>
<!-- Generator: Adobe Illustrator 19.0.0, SVG Export Plug-In . SVG Version: 6.00 Build 0)  -->
<svg version="1.1" id="layer" xmlns="http://www.w3.org/2000/svg" xmlns:xlink="http://www.w3.org/1999/xlink" x="0px" y="0px"
	 viewBox="-153 -46 652 652" style="enable-background:new -153 -46 652 652;" xml:space="preserve">
<style type="text/css">
	.st0{clip-path:url(#SVGID_2_);fill:url(#SVGID_3_);}
	.st1{fill:#005632;}
	.st2{fill:#FFFFFF;}
	.st3{clip-path:url(#SVGID_5_);fill:url(#SVGID_6_);}
</style>
<g>
	<defs>
		<path id="SVGID_1_" d="M168.6,38.1h-0.7c-93.5,0-191.8,25.1-268.1,78.8c-70.5,49.5-129.6,132.3-119.8,222.5
			c17.5,161.8,254.4,199.2,388.6,198.7c134.2,0.5,371.1-36.9,388.6-198.7c9.8-90.2-49.4-173-119.8-222.5
			c-76.3-53.6-174.5-78.8-268.1-78.8H168.6z"/>
	</defs>
	<clipPath id="SVGID_2_">
		<use xlink:href="#SVGID_1_"  style="overflow:visible;"/>
	</clipPath>
	
		<linearGradient id="SVGID_3_" gradientUnits="userSpaceOnUse" x1="-179.016" y1="768.5228" x2="-175.407" y2="768.5228" gradientTransform="matrix(229.6729 0 0 229.6729 40893.1953 -176220.5)">
		<stop  offset="0" style="stop-color:#D3BA7C"/>
		<stop  offset="0.2376" style="stop-color:#765B2B"/>
		<stop  offset="0.5189" style="stop-color:#D3BA7C"/>
		<stop  offset="0.8716" style="stop-color:#8E723C"/>
		<stop  offset="1" style="stop-color:#CEB46E"/>
	</linearGradient>
	<rect x="-229.7" y="38.1" class="st0" width="796.7" height="500.5"/>
</g>
<g>
	<path class="st1" d="M168.6,519c-126.7-0.2-398.4-26.9-381.3-208.4C-196.1,136.2,20.8,59.4,168.6,57.3
		c147.8,2.1,364.8,78.9,381.3,253.3C567.1,492.1,295.3,518.8,168.6,519"/>
	<path class="st2" d="M-78.7,364.3c0-22.3-10.6-34.8-28.1-34.8c-17.4,0-28.1,12.3-28.1,33.5c0,22.1,10.6,34.9,28.1,34.9
		C-89.5,397.9-78.7,385.3-78.7,364.3 M-162,363.6c0-37.4,26.4-56.6,55.5-56.6c32.4,0,54.8,19.1,54.8,56.6
		c0,37.4-26.4,56.7-55.5,56.7C-139.6,420.3-162,401.1-162,363.6 M108.8,331.9H79v-22.3h85.6v22.3h-29.4v86h-26.5V331.9z
		 M190.2,379.6h24.5l-9.3-24.6l-3-9.2l-3,9.2L190.2,379.6z M190.1,320.6l-4.1-11.1h27.3c3.8,9.3,39.3,98.9,43.3,108.2h-27.5
		l-7.4-19.6h-38.4l-7.3,19.6h-25.4L190.1,320.6z M422.3,379.6h24.5l-9.3-24.6l-3-9.2l-3,9.2L422.3,379.6z M422.1,320.6l-4.1-11.1
		h27.3c3.8,9.3,39.3,98.9,43.3,108.2h-27.5l-7.4-19.6h-38.4l-7.3,19.6h-25.4L422.1,320.6z M331.9,395.4v22.4h-64.5v-97.2l-4.1-11.1
		H294v85.8H331.9z M25.5,395.4v22.4H-39v-97.2l-4.1-11.1h30.7v85.8H25.5z M65.6,309.6v108.2H39.1v-97.2L35,309.6H65.6z M372.1,309.6
		v108.2h-26.5v-97.2l-4.1-11.1H372.1z"/>
</g>
<g>
	<defs>
		<path id="SVGID_4_" d="M95.8,220.5c-5,4.3-8,10-8.9,16c6.1,0,12.2-2.1,17.2-6.4c5-4.3,8-10,8.9-16
			C106.9,214.1,100.8,216.2,95.8,220.5 M233.4,230.1c5,4.3,11.1,6.4,17.2,6.4c-0.9-6-3.9-11.7-8.9-16c-5-4.3-11.1-6.4-17.2-6.4
			C225.4,220.1,228.4,225.9,233.4,230.1 M77,207c-6.5,1.1-12,4.4-16,9c5.2,3.2,11.5,4.6,18,3.5c6.5-1.1,12-4.4,16-9
			c-4.1-2.5-8.8-3.9-13.7-3.9C79.8,206.6,78.4,206.7,77,207 M242.6,210.5c3.9,4.6,9.5,8,16,9c6.5,1,12.8-0.4,18-3.5
			c-3.9-4.6-9.5-8-16-9c-1.4-0.2-2.9-0.3-4.3-0.3C251.3,206.6,246.6,208,242.6,210.5 M159.1,203.2c0.1,0.2,0.2,0.4,0.2,0.6
			c0,0.2,0.1,0.5,0.1,0.8c0,0.3,0,0.6-0.1,1.1l-0.6,5.8c0,0.4-0.1,0.8-0.1,1.1c-0.1,0.3-0.1,0.5-0.2,0.8c-0.1,0.2-0.2,0.4-0.3,0.5
			c-0.1,0.2-0.3,0.3-0.5,0.4l8.3,0.8c0.3,0,0.5,0.1,0.6,0.2c0.1,0.1,0.3,0.2,0.4,0.4l0.5-4.7c-0.1,0.2-0.3,0.4-0.4,0.6
			c-0.1,0.2-0.2,0.3-0.3,0.4c-0.1,0.1-0.2,0.2-0.4,0.3c-0.1,0.1-0.3,0.2-0.4,0.3c-0.4,0.3-0.8,0.4-1.3,0.5c-0.4,0.1-1,0.1-1.7,0
			c-0.4,0-0.7-0.1-1-0.2c-0.3-0.1-0.5-0.2-0.6-0.3c-0.2-0.1-0.3-0.3-0.3-0.5c-0.1-0.2-0.1-0.4,0-0.7l0.2-1.9l0.4,0
			c0.3,0,0.5,0,0.7,0c0.2,0,0.4,0,0.5,0c0.3,0,0.6,0.1,0.9,0.1c0.3,0.1,0.5,0.1,0.6,0.2c0.2,0.1,0.3,0.2,0.5,0.4
			c0.1,0.2,0.3,0.3,0.4,0.6l0.4-3.9c-0.2,0.2-0.4,0.4-0.6,0.5c-0.2,0.1-0.4,0.2-0.6,0.3c-0.2,0.1-0.5,0.1-0.8,0.1
			c-0.3,0-0.6,0-1-0.1c-0.3,0-0.5-0.1-0.7-0.1c-0.1,0-0.3-0.1-0.6-0.1l0.1-1.5c0-0.3,0.1-0.6,0.2-0.7c0.1-0.2,0.2-0.3,0.4-0.4
			c0.2-0.1,0.4-0.2,0.7-0.2c0.3,0,0.6,0,1.1,0c0.5,0.1,1,0.2,1.3,0.3c0.4,0.1,0.7,0.3,1,0.6c0.1,0.1,0.3,0.2,0.4,0.3
			c0.1,0.1,0.2,0.2,0.3,0.3c0.1,0.1,0.2,0.3,0.2,0.4c0.1,0.2,0.2,0.3,0.2,0.6l0.4-4.1c-0.2,0.1-0.4,0.2-0.5,0.2c-0.1,0-0.4,0-0.7,0
			l-7.9-0.8C158.8,202.9,159,203.1,159.1,203.2 M177.1,202.9c-0.2,0.1-0.4,0.2-0.6,0.2c-0.1,0-0.1,0-0.2,0c0,0-0.1,0-0.2,0
			c-0.1,0-0.2,0-0.3,0c-0.1,0-0.3,0-0.5-0.1c-0.3,0-0.5-0.1-0.8-0.1c-0.3,0-0.5,0-0.8,0c-0.7,0.1-1.3,0.3-1.9,0.6
			c-0.5,0.3-1,0.8-1.3,1.4c-0.3,0.6-0.6,1.3-0.7,2c-0.1,0.8-0.2,1.7-0.1,2.6c0.2,2.1,0.8,3.6,1.9,4.4c0.4,0.4,0.9,0.6,1.6,0.8
			c0.6,0.2,1.2,0.2,1.8,0.2c0.7-0.1,1.3-0.3,1.9-0.6c0.6-0.3,1-0.8,1.3-1.3c0.1-0.2,0.2-0.4,0.3-0.6c0.1-0.2,0.1-0.4,0.2-0.6
			c0.1-0.2,0.1-0.5,0.1-0.7c0-0.3,0-0.6,0-1c-0.4,0.9-1,1.5-1.5,1.9c-0.6,0.4-1.3,0.7-2.1,0.8c-1,0.1-1.7-0.1-2.3-0.7
			c-0.5-0.6-0.8-1.5-1-2.8c-0.1-1.4,0-2.5,0.4-3.3c0.4-0.8,1-1.3,1.9-1.4c0.4,0,0.8,0,1.2,0.2c0.4,0.2,0.8,0.4,1.2,0.8
			c0.1,0.1,0.3,0.3,0.4,0.4c0.1,0.1,0.2,0.3,0.3,0.4c0.1,0.1,0.2,0.3,0.3,0.5c0.1,0.2,0.2,0.4,0.4,0.7l-0.5-5.2
			C177.4,202.6,177.3,202.8,177.1,202.9 M179.7,202.3c0.2,0.1,0.4,0.2,0.6,0.4c0.1,0.1,0.3,0.3,0.4,0.5c0.1,0.2,0.2,0.4,0.3,0.7
			c0.1,0.3,0.2,0.6,0.3,1l1.3,5.7c0.1,0.4,0.2,0.8,0.2,1.1c0,0.3,0.1,0.6,0,0.8c0,0.2-0.1,0.4-0.1,0.6c-0.1,0.2-0.2,0.4-0.3,0.6
			l3.9-0.9c-0.2-0.1-0.4-0.2-0.6-0.4c-0.2-0.1-0.3-0.3-0.4-0.5c-0.1-0.2-0.2-0.4-0.3-0.7c-0.1-0.3-0.2-0.6-0.3-1l-1.3-5.7
			c-0.1-0.4-0.2-0.8-0.2-1.1c0-0.3-0.1-0.5,0-0.8c0-0.2,0.1-0.4,0.1-0.6c0.1-0.2,0.2-0.4,0.3-0.6L179.7,202.3z M151.2,203.9
			c0.1-0.5,0.3-0.8,0.7-0.9c0.3-0.1,0.8-0.1,1.4,0c0.6,0.1,0.9,0.4,1.2,0.8c0.2,0.4,0.3,0.8,0.1,1.3c-0.1,0.5-0.4,0.9-0.8,1.1
			c-0.4,0.2-1,0.3-1.7,0.3c-0.2,0-0.3,0-0.5,0c-0.1,0-0.2,0-0.3,0c-0.2,0-0.3,0-0.4,0c-0.1,0-0.2,0.1-0.4,0.2L151.2,203.9z
			 M149.3,200.7c0.1,0.2,0.1,0.4,0.1,0.6c0,0.2,0,0.4,0,0.7c0,0.3-0.1,0.6-0.2,0.9l-1.6,5.9c-0.1,0.4-0.2,0.8-0.3,1
			c-0.1,0.3-0.2,0.5-0.3,0.7c-0.1,0.2-0.3,0.4-0.4,0.5c-0.2,0.1-0.4,0.2-0.6,0.4l3.9,1c-0.1-0.2-0.2-0.4-0.3-0.6
			c-0.1-0.2-0.1-0.4-0.1-0.6c0-0.2,0-0.5,0.1-0.8c0.1-0.3,0.1-0.6,0.2-1.1l0.2-0.6c0.1-0.2,0.1-0.3,0.2-0.4c0.1-0.1,0.2-0.2,0.3-0.2
			c0.1-0.1,0.3-0.1,0.6-0.1c0.2,0,0.5,0,0.9,0c0.3,0,0.6,0,0.9,0c0.3,0,0.5,0,0.6,0c0.6,0,1.1-0.1,1.6-0.3c0.4-0.2,0.8-0.4,1.1-0.8
			c0.3-0.4,0.5-0.9,0.7-1.4c0.1-0.5,0.2-1,0.1-1.4c-0.1-0.4-0.2-0.9-0.5-1.2c-0.2-0.4-0.6-0.7-1-1c-0.4-0.3-0.9-0.5-1.5-0.6
			c-0.4-0.1-1-0.2-1.7-0.4c-0.7-0.2-1.3-0.3-1.7-0.4c-0.2,0-0.3-0.1-0.4-0.1c-0.1,0-0.2-0.1-0.3-0.1c-0.1,0-0.2-0.1-0.4-0.1
			c-0.1,0-0.3-0.1-0.4-0.2C149.1,200.4,149.2,200.6,149.3,200.7 M190.8,208.8c-0.6-0.5-1.1-1.4-1.5-2.8c-0.5-1.4-0.6-2.6-0.5-3.4
			c0.2-0.8,0.6-1.3,1.5-1.6c0.9-0.3,1.6-0.1,2.2,0.6c0.3,0.3,0.5,0.6,0.7,1c0.2,0.4,0.4,0.9,0.6,1.6c0.5,1.5,0.7,2.6,0.5,3.4
			c-0.2,0.8-0.6,1.3-1.5,1.6c-0.3,0.1-0.5,0.1-0.8,0.1C191.6,209.3,191.2,209.1,190.8,208.8 M189.7,199.3c-1.5,0.5-2.5,1.4-2.9,2.6
			c-0.4,1.2-0.3,2.8,0.4,4.9c1.2,3.7,3.3,5,6.2,4.1c3-1,3.9-3.5,2.6-7.4c-0.6-1.9-1.5-3.2-2.5-3.9c-0.6-0.4-1.2-0.6-2-0.6
			C190.9,199,190.3,199.1,189.7,199.3 M69.5,198.7c-11.6,1.3-22.9,4.8-32.9,10.5c10.6-4.4,21.8-6.9,33.1-7.3
			c5.6-0.2,11.3,0.1,16.8,0.9l4.2,0.7l1,0.2l1,0.2l2,0.5c2.7,0.5,5.4,1.4,8.1,2.2c1.3,0.4,2.6,0.9,4,1.4c1.3,0.5,2.6,0.9,3.9,1.4
			c2.6,1.1,5.1,2.1,7.7,3.4c5.2,2.4,10.4,4.9,15.7,7.2c5.3,2.3,10.9,4.3,16.6,5.9c3.2,0.9,6.4,1.5,9.7,2l-1.5,41.8h0l-43,10.2h42.7
			h19.2h42.7l-43-10.2h-0.1l-1.5-41.7c3.5-0.4,7-1.1,10.3-2.1c5.7-1.6,11.3-3.6,16.6-5.9c5.3-2.3,10.6-4.8,15.7-7.2
			c2.6-1.2,5.2-2.2,7.7-3.4c1.3-0.5,2.6-1,3.9-1.5c1.3-0.5,2.6-1,4-1.4c2.7-0.8,5.4-1.6,8.1-2.2l2-0.5l1-0.2l1-0.2l4.1-0.7
			c5.6-0.7,11.2-1.1,16.8-0.9c11.3,0.4,22.5,3,33.1,7.3c-10-5.7-21.3-9.2-32.9-10.5c-5.8-0.6-11.7-0.6-17.5-0.2l-4.4,0.5l-1.1,0.1
			l-1.1,0.2l-2.2,0.4c-2.9,0.4-5.7,1.2-8.6,1.9c-1.4,0.3-2.8,0.8-4.2,1.2c-1.4,0.4-2.8,0.9-4.2,1.3l-4.1,1.6c-1.4,0.5-2.7,1.1-4,1.7
			c-5.3,2.3-10.5,4.6-15.7,6.7c-5.2,2.1-10.5,4-15.9,5.4c-5.3,1.4-10.8,2.2-16.2,2.2c-5.4,0-10.8-0.8-16.2-2.2
			c-5.3-1.4-10.6-3.3-15.9-5.4c-5.3-2.1-10.5-4.4-15.7-6.7c-1.3-0.6-2.7-1.1-4-1.7l-4.1-1.6c-1.4-0.5-2.8-0.9-4.2-1.3
			c-1.4-0.4-2.8-0.9-4.2-1.2c-2.8-0.7-5.7-1.5-8.6-1.9l-2.2-0.4l-1.1-0.2l-1.1-0.1l-4.4-0.5c-2.7-0.2-5.4-0.3-8.1-0.3
			C75.8,198.2,72.6,198.4,69.5,198.7 M142.2,197.7c-0.5,0-0.9,0.1-1.3,0.2c-0.4,0.2-0.8,0.4-1.1,0.7c-0.3,0.3-0.6,0.7-0.7,1.2
			c-0.3,0.7-0.2,1.4,0.1,2c0.1,0.1,0.1,0.3,0.2,0.4c0.1,0.1,0.2,0.3,0.3,0.4c0.1,0.1,0.3,0.3,0.4,0.5c0.2,0.2,0.4,0.4,0.6,0.6
			l0.8,0.7c0.3,0.2,0.5,0.5,0.7,0.7c0.2,0.2,0.3,0.4,0.4,0.6c0.1,0.2,0.1,0.4,0.1,0.5c0,0.2,0,0.4-0.1,0.6c-0.2,0.5-0.5,0.8-0.9,0.9
			c-0.4,0.1-0.9,0.1-1.5-0.1c-0.4-0.2-0.8-0.4-1.1-0.6c-0.3-0.3-0.6-0.6-0.8-1c-0.1-0.2-0.2-0.4-0.3-0.5c-0.1-0.2-0.2-0.3-0.2-0.5
			c-0.1-0.2-0.1-0.4-0.2-0.6c-0.1-0.2-0.1-0.5-0.1-0.8l-1.7,4.5c0.3-0.1,0.6-0.2,0.8-0.2c0.2,0,0.4,0,0.6,0.1c0.1,0,0.1,0.1,0.2,0.1
			c0.1,0,0.1,0.1,0.2,0.1c0,0,0.1,0.1,0.2,0.1c0.1,0.1,0.3,0.2,0.5,0.3c0.5,0.3,1,0.6,1.5,0.8c0.6,0.2,1.1,0.3,1.6,0.3
			c0.5,0,1-0.1,1.5-0.2c0.5-0.2,0.8-0.4,1.2-0.8c0.3-0.4,0.6-0.8,0.8-1.3c0.2-0.4,0.2-0.8,0.2-1.2c0-0.4-0.1-0.8-0.2-1.2
			c-0.1-0.2-0.2-0.4-0.3-0.6c-0.1-0.2-0.2-0.3-0.4-0.5c-0.2-0.2-0.4-0.4-0.6-0.6c-0.3-0.2-0.6-0.5-1-0.8c-0.6-0.5-0.9-0.8-1.1-1.1
			c-0.2-0.3-0.2-0.6-0.1-1c0.1-0.4,0.4-0.6,0.8-0.7c0.4-0.1,0.9-0.1,1.4,0.2c0.7,0.3,1.3,0.7,1.7,1.3c0.1,0.1,0.2,0.3,0.3,0.4
			c0.1,0.1,0.1,0.3,0.2,0.4c0.1,0.1,0.1,0.3,0.1,0.5c0,0.2,0.1,0.4,0.1,0.6l1.4-3.8c-0.2,0.1-0.4,0.2-0.6,0.2c-0.2,0-0.4,0-0.6-0.1
			c-0.2-0.1-0.3-0.1-0.5-0.2l-0.6-0.4c-0.4-0.2-0.8-0.4-1.2-0.6C143.3,197.8,142.8,197.7,142.2,197.7L142.2,197.7z M202.3,194.7
			c-0.1,0.1-0.3,0.2-0.5,0.3c-0.2,0.1-0.3,0.1-0.5,0.1l-0.7,0.1c-0.5,0.1-0.9,0.2-1.3,0.4c-0.5,0.2-1,0.5-1.3,0.8
			c-0.4,0.3-0.7,0.7-0.9,1.1c-0.2,0.4-0.3,0.8-0.3,1.3c0,0.5,0.1,0.9,0.3,1.4c0.3,0.7,0.8,1.2,1.4,1.5c0.2,0.1,0.3,0.1,0.5,0.2
			c0.2,0,0.3,0.1,0.5,0.1c0.2,0,0.4,0,0.6,0.1c0.2,0,0.5,0,0.9,0l1,0c0.4,0,0.7,0,0.9,0.1c0.3,0,0.5,0.1,0.7,0.2
			c0.2,0.1,0.3,0.2,0.4,0.3c0.1,0.1,0.2,0.3,0.3,0.5c0.2,0.5,0.2,0.9,0,1.3c-0.2,0.4-0.6,0.7-1.2,1c-0.4,0.2-0.8,0.3-1.2,0.3
			c-0.4,0-0.8-0.1-1.3-0.2c-0.2-0.1-0.4-0.1-0.6-0.2c-0.2-0.1-0.3-0.1-0.5-0.2c-0.2-0.1-0.3-0.2-0.5-0.3c-0.2-0.1-0.4-0.3-0.6-0.5
			l1.8,4.4c0.2-0.3,0.3-0.5,0.4-0.7c0.1-0.1,0.3-0.2,0.5-0.4c0.1,0,0.1,0,0.2-0.1c0.1,0,0.1,0,0.2,0c0.1,0,0.1,0,0.3,0
			c0.1,0,0.3-0.1,0.6-0.1c0.6-0.1,1.1-0.2,1.7-0.5c0.6-0.2,1-0.5,1.4-0.9c0.4-0.4,0.7-0.7,0.9-1.2c0.2-0.4,0.3-0.9,0.3-1.4
			c0-0.5-0.1-1-0.3-1.5c-0.2-0.4-0.4-0.8-0.7-1.1c-0.3-0.3-0.6-0.5-1-0.7c-0.2-0.1-0.4-0.1-0.6-0.2c-0.2-0.1-0.4-0.1-0.7-0.1
			c-0.2,0-0.5,0-0.9,0c-0.3,0-0.8,0-1.3,0c-0.7,0-1.2,0-1.6-0.1c-0.3-0.1-0.6-0.3-0.7-0.7c-0.2-0.4-0.1-0.7,0.1-1.1
			c0.2-0.3,0.6-0.6,1.1-0.8c0.7-0.3,1.4-0.4,2.2-0.2c0.2,0,0.3,0.1,0.5,0.1c0.1,0,0.3,0.1,0.4,0.2c0.1,0.1,0.3,0.1,0.4,0.2
			c0.1,0.1,0.3,0.2,0.5,0.4l-1.6-3.8C202.5,194.4,202.4,194.6,202.3,194.7 M124.3,198.2l3.8-4l-0.6,5.5L124.3,198.2z M127.6,191.7
			c0,0.1,0,0.1,0,0.2c-0.1,0.1-0.2,0.3-0.5,0.6l-5.7,6c-0.4,0.5-0.8,0.8-1.2,1.1c-0.4,0.3-0.8,0.6-1.2,0.8l3.4,1.5
			c-0.1-0.3-0.2-0.5-0.2-0.7c0-0.2,0-0.4,0.2-0.7c0.1-0.1,0.1-0.3,0.2-0.4c0.1-0.1,0.2-0.3,0.4-0.5l4.2,1.9c0,0.3,0,0.5,0,0.6
			c0,0.1-0.1,0.3-0.2,0.5c-0.1,0.2-0.2,0.4-0.4,0.6c-0.2,0.1-0.4,0.2-0.7,0.3l3.6,1.6c-0.1-0.5-0.2-0.9-0.2-1.4c0-0.4,0-1,0.1-1.5
			l0.9-8.6c0-0.2,0.1-0.3,0.1-0.4c0-0.1,0.1-0.1,0.1-0.2c0,0,0.1-0.1,0.2-0.1l-3.1-1.4C127.6,191.5,127.6,191.6,127.6,191.7
			 M209.8,193.9l3.7,4.1l-3.1,1.4L209.8,193.9z M207.4,192.4c0.1,0.1,0.2,0.1,0.2,0.1c0,0,0.1,0.1,0.1,0.1c0.1,0.1,0.1,0.4,0.1,0.7
			l0.7,8.2c0.1,0.6,0.1,1.2,0,1.7c0,0.5-0.1,1-0.2,1.4l3.4-1.5c-0.3-0.1-0.5-0.2-0.7-0.3c-0.2-0.1-0.3-0.3-0.4-0.6
			c-0.1-0.1-0.1-0.3-0.1-0.4c0-0.2-0.1-0.4-0.1-0.7l4.2-1.9c0.2,0.2,0.3,0.3,0.4,0.4c0.1,0.1,0.2,0.3,0.2,0.4
			c0.1,0.2,0.2,0.5,0.2,0.7c0,0.2-0.1,0.5-0.2,0.8l3.6-1.6c-0.4-0.2-0.8-0.5-1.1-0.8c-0.3-0.3-0.7-0.6-1.1-1.1l-5.9-6.4
			c-0.1-0.1-0.2-0.2-0.2-0.3c0-0.1-0.1-0.2-0.1-0.2c0-0.1,0-0.1,0-0.3L207.4,192.4z M299.2,187.1c-0.4,0.1-0.8,0.3-1.2,0.6
			c-0.3,0.3-0.6,0.7-0.8,1.1c-0.3,0.7-0.4,1.4-0.1,2c0.1,0.2,0.1,0.3,0.2,0.4c0.1,0.1,0.2,0.3,0.3,0.4c0.1,0.2,0.2,0.3,0.4,0.5
			c0.2,0.2,0.3,0.4,0.6,0.6l0.7,0.8c0.2,0.3,0.4,0.5,0.6,0.7c0.1,0.2,0.3,0.4,0.3,0.6c0.1,0.2,0.1,0.4,0.1,0.6
			c0,0.2-0.1,0.4-0.2,0.6c-0.2,0.4-0.5,0.7-1,0.8c-0.4,0.1-0.9,0-1.5-0.2c-0.4-0.2-0.7-0.4-1-0.7c-0.3-0.3-0.5-0.7-0.8-1.1
			c-0.1-0.2-0.2-0.4-0.2-0.5c-0.1-0.2-0.1-0.3-0.2-0.5c0-0.2-0.1-0.4-0.1-0.6c0-0.2-0.1-0.5-0.1-0.8l-2,4.3c0.4-0.1,0.6-0.1,0.8-0.2
			c0.2,0,0.4,0,0.6,0.2c0.1,0,0.1,0.1,0.2,0.1c0.1,0,0.1,0.1,0.2,0.1c0,0,0.1,0.1,0.2,0.2c0.1,0.1,0.2,0.2,0.4,0.4
			c0.5,0.4,0.9,0.7,1.5,0.9c0.5,0.3,1.1,0.4,1.6,0.5c0.5,0.1,1,0,1.5-0.1c0.5-0.1,0.9-0.4,1.2-0.7c0.4-0.3,0.7-0.7,0.9-1.2
			c0.2-0.4,0.3-0.8,0.3-1.2c0-0.4,0-0.8-0.1-1.2c-0.1-0.2-0.2-0.4-0.3-0.6c-0.1-0.2-0.2-0.4-0.4-0.6c-0.2-0.2-0.3-0.4-0.6-0.7
			c-0.2-0.3-0.5-0.6-0.9-0.9c-0.5-0.5-0.8-0.9-1-1.2c-0.1-0.3-0.1-0.6,0-1c0.2-0.4,0.5-0.6,0.9-0.7c0.4-0.1,0.8,0,1.4,0.3
			c0.7,0.3,1.2,0.8,1.6,1.5c0.1,0.2,0.2,0.3,0.2,0.4c0.1,0.1,0.1,0.3,0.1,0.4c0,0.1,0.1,0.3,0.1,0.5c0,0.2,0.1,0.4,0.1,0.6l1.8-3.7
			c-0.2,0.1-0.4,0.1-0.6,0.1c-0.2,0-0.4-0.1-0.6-0.2c-0.2-0.1-0.3-0.2-0.4-0.3l-0.6-0.4c-0.4-0.3-0.8-0.5-1.1-0.7
			c-0.5-0.2-1-0.4-1.5-0.4c-0.1,0-0.3,0-0.4,0C299.8,187,299.5,187,299.2,187.1 M37.7,196.6c-0.6-0.4-1.2-1.3-1.9-2.6
			c-0.6-1.4-0.9-2.5-0.9-3.3c0.1-0.8,0.5-1.4,1.3-1.8c0.8-0.4,1.6-0.3,2.3,0.3c0.3,0.2,0.6,0.5,0.8,0.9c0.2,0.4,0.5,0.9,0.8,1.5
			c0.7,1.4,1,2.5,0.9,3.3c-0.1,0.8-0.5,1.4-1.3,1.7c-0.3,0.2-0.7,0.2-1,0.2C38.4,196.9,38,196.8,37.7,196.6 M35.4,187.3
			c-1.5,0.7-2.3,1.7-2.6,2.9c-0.3,1.2,0.1,2.9,1,4.8c0.6,1.2,1.2,2.1,1.8,2.7c0.7,0.6,1.4,1,2.2,1.1c-0.1,0.5-0.1,0.9,0.1,1.2
			c0.1,0.2,0.2,0.4,0.4,0.5c0.2,0.1,0.4,0.2,0.7,0.3c-0.1-0.5-0.1-1,0-1.4c0.1-0.4,0.4-0.6,0.8-0.8c0.3-0.1,0.5-0.2,0.8-0.1
			c0.3,0,0.6,0.2,1.1,0.4c0.3,0.1,0.5,0.3,0.8,0.3c0.2,0.1,0.4,0.1,0.6,0.2c0.2,0,0.4,0,0.6,0c0.2,0,0.4-0.1,0.5-0.2
			c0.5-0.2,0.8-0.6,1-1c0.2-0.4,0.2-0.9,0-1.3c-0.1-0.1-0.1-0.2-0.2-0.3c-0.1-0.1-0.2-0.2-0.3-0.4c0,0.3-0.1,0.6-0.2,0.7
			c-0.1,0.2-0.2,0.3-0.4,0.4c-0.1,0.1-0.3,0.1-0.5,0.1c-0.2,0-0.4-0.1-0.7-0.3c-0.1-0.1-0.2-0.1-0.3-0.1c-0.1,0-0.2-0.1-0.3-0.1
			c0.6-0.8,0.9-1.7,0.8-2.7c0-1-0.4-2.2-1-3.6c-0.9-1.8-1.8-3-2.9-3.5c-0.5-0.2-1-0.4-1.6-0.4C36.9,186.7,36.2,186.9,35.4,187.3
			 M219.6,187c0.2,0.1,0.4,0.2,0.6,0.3c0.2,0.1,0.3,0.3,0.5,0.4c0.1,0.2,0.3,0.4,0.4,0.7c0.1,0.3,0.3,0.6,0.4,1l2.2,5.4
			c0.2,0.4,0.3,0.7,0.4,1c0.1,0.3,0.1,0.5,0.2,0.8c0,0.2,0,0.4,0,0.6c-0.1,0.2-0.1,0.4-0.3,0.6l3.7-1.5c-0.2-0.1-0.4-0.2-0.6-0.3
			c-0.2-0.1-0.3-0.2-0.5-0.4c-0.1-0.2-0.3-0.4-0.4-0.7c-0.1-0.3-0.3-0.6-0.4-1l-2.2-5.4c-0.2-0.4-0.3-0.7-0.4-1
			c-0.1-0.3-0.1-0.5-0.1-0.8c0-0.2,0-0.4,0.1-0.6c0-0.2,0.1-0.4,0.2-0.6L219.6,187z M114.3,185.8c0,0.1,0,0.1,0,0.2
			c0.1,0.2,0.1,0.5,0.1,0.7c0,0.2,0,0.5,0.1,0.7c0,0.2,0,0.5,0,0.8c0,0.3,0,0.6-0.1,1l-0.7,7.5c0,0.1,0,0.3,0,0.4
			c0,0.1-0.1,0.2-0.1,0.3c-0.1,0.1-0.2,0.2-0.4,0.3l3,1.3c0-0.1,0-0.2,0-0.2c0-0.1,0-0.1,0.1-0.2c0-0.1,0.1-0.2,0.2-0.2l0.2-0.2
			l5.5-6.2c0.2-0.3,0.4-0.5,0.6-0.7c0.2-0.2,0.4-0.4,0.6-0.5c0.2-0.1,0.4-0.3,0.6-0.4c0.2-0.1,0.5-0.2,0.7-0.3l-3.7-1.6
			c0.1,0.3,0.2,0.5,0.2,0.7c0,0.2-0.1,0.5-0.2,0.8c-0.1,0.2-0.2,0.4-0.3,0.6c-0.1,0.2-0.3,0.4-0.6,0.7l-3.5,4l-0.6,0.7l-0.3,0.3
			l0.1-0.4l0.1-1l0.5-5c0.1-0.5,0.1-0.9,0.2-1.2c0.1-0.3,0.1-0.5,0.2-0.7c0.1-0.2,0.2-0.4,0.4-0.5c0.2-0.1,0.4-0.2,0.6-0.3l-3.6-1.6
			C114.2,185.6,114.2,185.7,114.3,185.8 M109.4,184.4c0.1,0.2,0.1,0.4,0.1,0.6c0,0.2,0,0.5-0.1,0.8c-0.1,0.3-0.2,0.6-0.3,1l-1.9,5.5
			c-0.1,0.4-0.3,0.7-0.4,1c-0.1,0.3-0.3,0.5-0.4,0.7c-0.1,0.2-0.3,0.3-0.5,0.4c-0.2,0.1-0.4,0.2-0.6,0.3l3.8,1.3
			c-0.1-0.2-0.2-0.4-0.3-0.6c-0.1-0.2-0.1-0.4-0.1-0.6c0-0.2,0-0.5,0.1-0.8c0.1-0.3,0.2-0.6,0.3-1l1.9-5.5c0.1-0.4,0.3-0.7,0.4-1
			c0.1-0.3,0.2-0.5,0.4-0.7c0.1-0.2,0.3-0.3,0.5-0.5c0.2-0.1,0.4-0.2,0.6-0.3l-3.8-1.3C109.2,184,109.3,184.2,109.4,184.4
			 M292.5,184.3c0.1,0.2,0.1,0.4,0.1,0.6c0,0.2-0.1,0.5-0.1,0.8c-0.1,0.3-0.2,0.6-0.3,1l-2,5.5c-0.1,0.4-0.3,0.7-0.4,1
			c-0.1,0.3-0.3,0.5-0.4,0.7c-0.1,0.2-0.3,0.3-0.5,0.4c-0.2,0.1-0.4,0.2-0.6,0.3l3.8,1.4c-0.1-0.2-0.2-0.4-0.3-0.6
			c-0.1-0.2-0.1-0.4-0.1-0.6c0-0.2,0.1-0.5,0.1-0.8c0.1-0.3,0.2-0.6,0.3-1l2-5.5c0.1-0.4,0.3-0.7,0.4-1c0.1-0.3,0.3-0.5,0.4-0.7
			c0.1-0.2,0.3-0.3,0.5-0.4c0.2-0.1,0.4-0.2,0.6-0.3l-3.8-1.4C292.4,183.8,292.4,184.1,292.5,184.3 M231.7,182.7
			c0.2,0.1,0.4,0.2,0.6,0.3c0.2,0.1,0.3,0.3,0.4,0.5c0.1,0.2,0.2,0.4,0.4,0.7c0.1,0.3,0.2,0.6,0.3,1l1.6,5.3
			c-0.2-0.2-0.3-0.4-0.4-0.5c-0.1-0.1-0.2-0.3-0.3-0.4c-0.1-0.1-0.2-0.3-0.4-0.4c-0.1-0.1-0.3-0.3-0.5-0.5l-4-4.3
			c-0.2-0.2-0.2-0.3-0.3-0.4c0-0.1,0-0.3,0.1-0.5l-4,1.2c0.2,0.1,0.4,0.2,0.6,0.3c0.2,0.1,0.3,0.3,0.4,0.5c0.1,0.2,0.2,0.4,0.4,0.7
			c0.1,0.3,0.2,0.6,0.3,1l1.7,5.6c0.1,0.4,0.2,0.7,0.3,1c0.1,0.3,0.1,0.5,0.1,0.8c0,0.2,0,0.4-0.1,0.6c-0.1,0.2-0.2,0.4-0.3,0.6
			l3.7-1.1c-0.2-0.1-0.4-0.2-0.6-0.3c-0.2-0.1-0.3-0.3-0.4-0.5c-0.1-0.2-0.2-0.4-0.4-0.7c-0.1-0.3-0.2-0.6-0.3-1l-1.7-5.6l5.9,6.3
			c0.1,0.2,0.2,0.3,0.3,0.4c0.1,0.1,0.1,0.2,0.1,0.3c0,0.1,0,0.2,0,0.3l3-0.9c-0.2-0.1-0.3-0.2-0.3-0.2c-0.1-0.1-0.1-0.2-0.2-0.4
			l-2.4-7.6c-0.1-0.4-0.2-0.7-0.3-1c-0.1-0.3-0.1-0.5-0.1-0.8c0-0.2,0-0.4,0.1-0.6c0.1-0.2,0.2-0.4,0.3-0.6L231.7,182.7z
			 M48.6,182.5c0.2,0.1,0.4,0.2,0.6,0.3c0.2,0.1,0.3,0.3,0.4,0.5c0.1,0.2,0.3,0.4,0.4,0.7c0.1,0.3,0.2,0.6,0.4,1l1.4,4.4
			c0.1,0.5,0.2,0.9,0.3,1.2c0,0.3,0,0.6-0.1,0.8c-0.2,0.5-0.7,0.9-1.5,1.2c-0.7,0.2-1.3,0.2-1.7,0c-0.4-0.3-0.8-0.8-1-1.6l-1.5-4.6
			c-0.1-0.4-0.2-0.7-0.3-1c-0.1-0.3-0.1-0.5-0.1-0.8c0-0.2,0-0.4,0.1-0.6c0.1-0.2,0.2-0.4,0.3-0.6l-3.8,1.2c0.2,0.1,0.4,0.2,0.6,0.3
			c0.2,0.1,0.3,0.3,0.4,0.5c0.1,0.2,0.3,0.4,0.4,0.7c0.1,0.3,0.2,0.6,0.4,1l1.4,4.5c0.1,0.4,0.2,0.7,0.4,1c0.1,0.3,0.3,0.5,0.4,0.8
			c0.2,0.2,0.3,0.4,0.5,0.5c0.2,0.1,0.4,0.3,0.6,0.4c0.4,0.2,0.9,0.4,1.5,0.4c0.6,0,1.3-0.1,2-0.3c0.7-0.2,1.3-0.5,1.8-0.9
			c0.5-0.3,0.9-0.8,1.2-1.2c0.2-0.4,0.4-0.9,0.4-1.5c0-0.6-0.1-1.2-0.4-2l-1.4-4.3c-0.1-0.4-0.2-0.8-0.3-1.1
			c-0.1-0.3-0.1-0.6-0.1-0.8c0-0.2,0-0.4,0.1-0.6c0.1-0.2,0.2-0.4,0.3-0.6L48.6,182.5z M100.3,181.8c0.1,0.2,0.1,0.4,0.1,0.6
			c0,0.2,0,0.5-0.1,0.8c-0.1,0.3-0.1,0.6-0.2,1l-1.5,5.7c-0.1,0.4-0.2,0.7-0.3,1c-0.1,0.3-0.2,0.5-0.3,0.7c-0.1,0.2-0.3,0.3-0.4,0.5
			c-0.2,0.1-0.3,0.2-0.6,0.4l6.3,1.7c0.3,0.1,0.6,0.2,0.7,0.3c0.1,0.1,0.2,0.2,0.3,0.5l1.4-4.9c-0.1,0.2-0.2,0.3-0.3,0.4
			c-0.1,0.1-0.2,0.2-0.3,0.3c-0.1,0.1-0.2,0.2-0.3,0.3c-0.1,0.1-0.2,0.2-0.3,0.2c-0.4,0.3-0.9,0.6-1.4,0.7c-0.5,0.1-1,0.1-1.4,0
			c-0.5-0.1-0.8-0.3-0.9-0.6c-0.1-0.2-0.1-0.6,0-1.1l1.5-5.5c0.1-0.4,0.2-0.7,0.3-1c0.1-0.3,0.2-0.5,0.3-0.7
			c0.1-0.2,0.3-0.4,0.4-0.5c0.2-0.1,0.4-0.3,0.6-0.4l-3.9-1.1C100.1,181.4,100.2,181.6,100.3,181.8 M284.2,184.4
			c0.1-0.5,0.4-0.8,0.7-0.9c0.3-0.1,0.8-0.1,1.4,0c0.6,0.2,0.9,0.4,1.2,0.8c0.2,0.4,0.3,0.8,0.2,1.3c-0.1,0.5-0.4,0.9-0.8,1.1
			c-0.4,0.2-1,0.3-1.7,0.3c-0.2,0-0.4,0-0.5,0c-0.1,0-0.2,0-0.3,0c-0.2,0-0.3,0-0.4,0c-0.1,0-0.2,0.1-0.4,0.2L284.2,184.4z
			 M282.3,181.3c0.1,0.2,0.1,0.4,0.1,0.6c0,0.2,0,0.4,0,0.7c0,0.3-0.1,0.6-0.2,0.9l-1.6,5.9c-0.1,0.4-0.2,0.8-0.3,1
			c-0.1,0.3-0.2,0.5-0.3,0.7c-0.1,0.2-0.3,0.3-0.4,0.5c-0.2,0.1-0.3,0.2-0.6,0.4l3.9,1c-0.1-0.2-0.2-0.4-0.3-0.6
			c-0.1-0.2-0.1-0.4-0.1-0.6c0-0.2,0-0.5,0.1-0.8c0-0.3,0.1-0.6,0.2-1l0.2-0.6c0.1-0.2,0.1-0.3,0.2-0.4c0.1-0.1,0.2-0.2,0.3-0.2
			c0.1,0,0.3-0.1,0.6-0.1c0.2,0,0.6,0,1,0c0.3,0,0.6,0,0.9,0.1c0.3,0,0.5,0,0.6,0c0.6,0,1.1-0.1,1.6-0.3c0.4-0.2,0.8-0.4,1.1-0.8
			c0.3-0.4,0.6-0.9,0.7-1.4c0.1-0.5,0.2-1,0.1-1.4c-0.1-0.4-0.2-0.9-0.5-1.2c-0.2-0.4-0.6-0.7-1-1c-0.4-0.3-0.9-0.5-1.5-0.6
			c-0.4-0.1-1-0.2-1.7-0.4c-0.7-0.2-1.3-0.3-1.7-0.4c-0.2,0-0.3-0.1-0.4-0.1c-0.1,0-0.2-0.1-0.3-0.1c-0.1,0-0.2-0.1-0.4-0.1
			c-0.1,0-0.3-0.1-0.5-0.2C282.1,180.9,282.2,181.1,282.3,181.3 M59,182.4l2.6,4.8l-3.4,0.6L59,182.4z M57,180.4
			c0.1,0.1,0.2,0.1,0.2,0.2c0,0.1,0.1,0.1,0.1,0.2c0,0.1,0,0.4-0.1,0.7l-1.3,8.1c-0.1,0.6-0.2,1.2-0.4,1.6c-0.1,0.5-0.3,0.9-0.5,1.4
			l3.6-0.7c-0.3-0.2-0.5-0.3-0.6-0.5c-0.1-0.2-0.2-0.4-0.3-0.6c0-0.2,0-0.3,0-0.5c0-0.2,0-0.4,0.1-0.6l4.5-0.9
			c0.1,0.2,0.2,0.4,0.3,0.5c0.1,0.1,0.1,0.3,0.1,0.5c0.1,0.3,0,0.5,0,0.7c-0.1,0.2-0.2,0.4-0.4,0.7l3.9-0.7c-0.4-0.3-0.7-0.7-0.9-1
			c-0.3-0.4-0.5-0.8-0.8-1.3l-4.2-7.6c-0.1-0.1-0.1-0.3-0.1-0.4c0-0.1,0-0.2,0-0.2c0-0.1,0-0.1,0.1-0.2L57,180.4z M91.5,189.8
			c-0.8-0.1-1.4-0.6-1.6-1.3c-0.3-0.7-0.3-1.8,0-3.2c0.3-1.5,0.6-2.6,1.1-3.2c0.5-0.6,1.2-0.9,2-0.7c0.9,0.2,1.5,0.7,1.7,1.6
			c0.1,0.4,0.2,0.8,0.1,1.2c0,0.4-0.1,1-0.2,1.7c-0.3,1.5-0.6,2.6-1.1,3.2c-0.4,0.5-0.9,0.7-1.5,0.7
			C91.8,189.9,91.7,189.8,91.5,189.8 M89.5,180.5c-0.9,0.9-1.6,2.4-1.9,4.5c-0.6,3.8,0.5,6,3.6,6.5c3.1,0.5,5-1.3,5.7-5.3
			c0.3-2,0.2-3.5-0.4-4.6c-0.6-1.1-1.7-1.7-3.2-2c-0.4-0.1-0.7-0.1-1.1-0.1C91.1,179.5,90.2,179.9,89.5,180.5 M250.3,179
			c-0.2,0.1-0.4,0.2-0.6,0.2c-0.1,0-0.1,0-0.2,0c0,0-0.1,0-0.2,0c-0.1,0-0.2,0-0.3,0c-0.1,0-0.3,0-0.5,0c-0.3,0-0.5,0-0.8,0
			c-0.3,0-0.5,0-0.7,0.1c-0.7,0.1-1.3,0.3-1.9,0.7c-0.5,0.4-0.9,0.8-1.3,1.4c-0.3,0.6-0.5,1.3-0.6,2.1c-0.1,0.8-0.1,1.7,0,2.6
			c0.3,2.1,1,3.5,2,4.3c0.5,0.4,1,0.6,1.6,0.7c0.6,0.2,1.2,0.2,1.9,0.1c0.7-0.1,1.3-0.3,1.8-0.7c0.5-0.4,0.9-0.8,1.2-1.3
			c0.1-0.2,0.2-0.4,0.3-0.6c0.1-0.2,0.1-0.4,0.2-0.6c0-0.2,0.1-0.5,0.1-0.7c0-0.3,0-0.6,0-1c-0.4,0.9-0.9,1.5-1.4,2
			c-0.6,0.5-1.2,0.7-2,0.9c-1,0.1-1.7-0.1-2.3-0.6c-0.5-0.6-0.9-1.5-1.1-2.8c-0.2-1.4-0.1-2.5,0.3-3.4c0.4-0.8,1-1.3,1.8-1.4
			c0.4-0.1,0.8,0,1.2,0.1c0.4,0.1,0.8,0.4,1.2,0.7c0.1,0.1,0.3,0.2,0.4,0.4c0.1,0.1,0.2,0.2,0.3,0.4c0.1,0.1,0.2,0.3,0.3,0.5
			c0.1,0.2,0.2,0.4,0.4,0.6l-0.7-5.2C250.6,178.7,250.4,178.9,250.3,179 M258.1,180.8l1.8,5.2l-3.4,0.1L258.1,180.8z M256.4,178.5
			c0.1,0.1,0.1,0.2,0.2,0.2c0,0,0,0.1,0,0.2c0,0.1-0.1,0.4-0.2,0.7l-2.5,7.8c-0.2,0.6-0.4,1.1-0.6,1.6c-0.2,0.4-0.4,0.9-0.7,1.3
			l3.7-0.1c-0.2-0.2-0.4-0.4-0.5-0.6c-0.1-0.2-0.1-0.4-0.1-0.7c0-0.2,0-0.3,0-0.5c0-0.2,0.1-0.4,0.2-0.6l4.6-0.1
			c0.1,0.2,0.2,0.4,0.2,0.6c0,0.1,0.1,0.3,0.1,0.5c0,0.3,0,0.5-0.1,0.7c-0.1,0.2-0.3,0.4-0.5,0.6l3.9-0.1c-0.3-0.4-0.5-0.8-0.7-1.2
			c-0.2-0.4-0.4-0.9-0.6-1.4l-3-8.1c-0.1-0.2-0.1-0.3-0.1-0.4c0-0.1,0-0.2,0-0.2c0-0.1,0.1-0.1,0.1-0.2L256.4,178.5z M78,178.9
			c0.1,0.2,0.2,0.4,0.3,0.6c0.1,0.2,0.1,0.5,0.1,0.8c0,0.3,0,0.6,0,1.1l-0.2,5.9c0,0.4,0,0.8-0.1,1.1c0,0.3-0.1,0.6-0.2,0.8
			c-0.1,0.2-0.2,0.4-0.3,0.6c-0.1,0.2-0.3,0.3-0.5,0.5l4,0.1c-0.2-0.2-0.3-0.3-0.4-0.5c-0.1-0.2-0.2-0.4-0.3-0.6
			c-0.1-0.2-0.1-0.5-0.1-0.8c0-0.3,0-0.6,0-1.1l0.2-5.9c0-0.4,0-0.8,0.1-1.1c0-0.3,0.1-0.5,0.2-0.8c0.1-0.2,0.2-0.4,0.3-0.6
			c0.1-0.2,0.3-0.3,0.5-0.5l-4-0.1C77.7,178.6,77.9,178.8,78,178.9 M266,178.8c0.1,0.2,0.2,0.4,0.2,0.6c0,0.2,0.1,0.5,0,0.8
			c0,0.3,0,0.6-0.1,1.1l-0.7,5.8c-0.1,0.4-0.1,0.8-0.2,1.1c-0.1,0.3-0.1,0.5-0.2,0.7c-0.1,0.2-0.2,0.4-0.4,0.5
			c-0.1,0.1-0.3,0.3-0.5,0.4l3.8,0.5c-0.1-0.2-0.3-0.3-0.3-0.5c-0.1-0.2-0.1-0.4-0.2-0.6c0-0.2,0-0.5,0-0.8c0-0.3,0-0.7,0.1-1.1
			l0.9-7l1.6,9.1c0,0.3,0.1,0.4,0,0.6c0,0.1,0,0.2-0.1,0.3c-0.1,0.1-0.2,0.2-0.3,0.3l3.1,0.4c-0.1-0.1-0.2-0.2-0.2-0.3
			c0-0.1,0-0.2,0-0.3c0-0.1,0-0.2,0.1-0.3c0-0.1,0.1-0.2,0.2-0.4l3.8-8.3l-0.9,7c-0.1,0.4-0.1,0.8-0.2,1.1c-0.1,0.3-0.1,0.5-0.2,0.8
			c-0.1,0.2-0.2,0.4-0.4,0.5c-0.1,0.1-0.3,0.3-0.5,0.4l4,0.5c-0.2-0.2-0.3-0.4-0.4-0.5c-0.1-0.2-0.2-0.4-0.2-0.6
			c0-0.2-0.1-0.5,0-0.8c0-0.3,0-0.7,0.1-1.1l0.7-5.8c0.1-0.4,0.1-0.8,0.2-1.1c0.1-0.3,0.1-0.5,0.2-0.7c0.1-0.2,0.2-0.4,0.3-0.5
			c0.1-0.2,0.3-0.3,0.5-0.4l-5-0.6c0.1,0.1,0.2,0.2,0.2,0.3c0,0.1,0,0.2,0,0.3c0,0.1,0,0.2-0.1,0.2c0,0.1-0.1,0.2-0.2,0.4l-2.3,4.9
			c0,0.1-0.1,0.2-0.1,0.3c0,0.1-0.1,0.2-0.1,0.3c-0.1,0.1-0.1,0.3-0.2,0.5c-0.1,0.2-0.2,0.5-0.3,0.8l-0.2,0.5l-0.1-0.6l-0.2-1
			l-0.1-0.7l-1-5.6c0-0.3-0.1-0.5,0-0.7c0-0.1,0-0.2,0.1-0.2c0-0.1,0.1-0.1,0.2-0.2l-4.8-0.6C265.8,178.5,265.9,178.6,266,178.8
			 M74.2,178.4c-0.2,0.1-0.4,0.1-0.6,0.1c-0.2,0-0.3,0-0.5,0l-0.7-0.1c-0.5-0.1-0.9-0.1-1.3-0.1c-0.6,0-1.1,0.2-1.5,0.3
			c-0.5,0.2-0.9,0.5-1.2,0.8c-0.3,0.3-0.6,0.7-0.7,1.1c-0.2,0.4-0.2,0.9-0.2,1.4c0,0.8,0.3,1.4,0.9,1.8c0.1,0.1,0.3,0.2,0.4,0.3
			c0.1,0.1,0.3,0.2,0.5,0.2c0.2,0.1,0.4,0.2,0.6,0.3c0.2,0.1,0.5,0.2,0.8,0.3l1,0.3c0.3,0.1,0.6,0.2,0.9,0.4
			c0.2,0.1,0.4,0.2,0.6,0.4c0.1,0.1,0.2,0.3,0.3,0.5c0.1,0.2,0.1,0.4,0.1,0.6c0,0.5-0.1,0.9-0.5,1.2c-0.3,0.3-0.8,0.5-1.5,0.5
			c-0.4,0-0.8,0-1.2-0.1c-0.4-0.1-0.8-0.3-1.2-0.6c-0.2-0.1-0.3-0.3-0.5-0.4c-0.1-0.1-0.3-0.2-0.4-0.4c-0.1-0.1-0.3-0.3-0.4-0.5
			c-0.1-0.2-0.3-0.4-0.4-0.6l0.3,4.8c0.3-0.3,0.5-0.4,0.6-0.5c0.2-0.1,0.4-0.1,0.6-0.2c0.1,0,0.1,0,0.2,0c0.1,0,0.1,0,0.2,0
			c0,0,0.1,0,0.3,0c0.1,0,0.3,0.1,0.6,0.1c0.6,0.1,1.2,0.1,1.7,0.1c0.6,0,1.2-0.1,1.6-0.4c0.5-0.2,0.9-0.5,1.3-0.8
			c0.3-0.3,0.6-0.7,0.8-1.2c0.2-0.5,0.2-1,0.2-1.5c0-0.4-0.1-0.9-0.3-1.2c-0.2-0.4-0.4-0.7-0.7-1c-0.2-0.1-0.3-0.3-0.5-0.4
			c-0.2-0.1-0.4-0.2-0.6-0.3c-0.2-0.1-0.5-0.2-0.8-0.3c-0.3-0.1-0.7-0.2-1.2-0.4c-0.7-0.2-1.2-0.4-1.4-0.6c-0.3-0.2-0.4-0.5-0.4-0.9
			c0-0.4,0.1-0.8,0.4-1c0.3-0.2,0.8-0.4,1.4-0.4c0.8,0,1.5,0.1,2.1,0.5c0.1,0.1,0.3,0.2,0.4,0.3c0.1,0.1,0.2,0.2,0.3,0.3
			c0.1,0.1,0.2,0.2,0.3,0.4c0.1,0.1,0.2,0.3,0.4,0.5l-0.2-4.1C74.5,178.2,74.4,178.3,74.2,178.4 M59.6,168.3
			c-6.2,1.4-12.3,3.4-18.1,6.1c-5.5,2.6-10.8,5.6-15.4,9.4v0.1c2.4-1.6,4.9-3,7.5-4.2c2.8-1.4,5.7-2.6,8.6-3.7
			c5.8-2.1,11.9-3.7,18-4.6c6.1-1,12.3-1.3,18.4-0.9c6.1,0.3,12.2,1.2,18.2,2.7c5.9,1.5,11.8,3.5,17.4,5.9c2.8,1.2,5.6,2.5,8.5,3.9
			c2.9,1.3,5.7,2.7,8.6,3.9c2.9,1.3,5.8,2.5,8.9,3.6c3,1.1,6,2.2,9.2,3.1c3.1,0.9,6.3,1.6,9.5,2.2c3.2,0.5,6.6,0.8,9.9,0.8
			c3.3,0,6.6-0.3,9.9-0.8c3.2-0.6,6.4-1.3,9.5-2.2c3.1-0.9,6.2-1.9,9.2-3.1c3-1.1,5.9-2.3,8.8-3.6c2.9-1.3,5.8-2.6,8.6-4
			c2.8-1.3,5.7-2.7,8.5-3.9c5.6-2.4,11.4-4.4,17.4-5.9c5.9-1.5,12-2.3,18.2-2.7c6.1-0.3,12.3,0,18.4,0.9c6.1,0.9,12.1,2.5,18,4.6
			c2.9,1.1,5.8,2.3,8.6,3.7c2.6,1.3,5.1,2.6,7.5,4.2v-0.1c-4.6-3.8-9.9-6.9-15.4-9.4c-5.8-2.7-11.8-4.7-18.1-6.1
			c-12.5-2.7-25.6-2.7-38.2-0.1c-6.3,1.3-12.5,3.2-18.5,5.6c-3,1.2-5.9,2.5-8.8,3.7c-2.9,1.3-5.7,2.5-8.6,3.7
			c-5.7,2.4-11.5,4.6-17.3,6.3c-2.9,0.8-5.9,1.5-8.8,1.9c-3,0.5-5.9,0.7-8.9,0.7c-3,0-5.9-0.2-8.9-0.7c-3-0.5-5.9-1.1-8.8-1.9
			c-5.9-1.6-11.6-3.9-17.3-6.3c-2.9-1.2-5.7-2.4-8.6-3.7c-2.9-1.3-5.7-2.5-8.8-3.7c-0.7-0.3-1.5-0.6-2.2-0.9l-2.3-0.8l-2.3-0.8
			c-0.8-0.3-1.5-0.5-2.3-0.7c-1.5-0.4-3.1-0.9-4.7-1.3c-1.6-0.4-3.1-0.8-4.7-1.1c-6.3-1.3-12.7-2-19.1-2
			C72.3,166.2,65.8,166.9,59.6,168.3 M128.9,157.6c1,6,4,11.7,9.1,15.9c5,4.2,11.2,6.3,17.2,6.2c-1-6-4-11.7-9.1-15.9
			c-5-4.2-11-6.2-17.1-6.2H128.9z M208.4,157.6c-6,0-12.1,2-17.1,6.2c-5,4.2-8.1,9.9-9.1,15.9c6.1,0,12.2-2,17.2-6.2
			c5-4.2,8.1-9.9,9.1-15.9H208.4z M162.4,170.2c0,6.6,2.4,12.6,6.4,17.2c4-4.6,6.3-10.6,6.3-17.2c0-6.6-2.4-12.6-6.3-17.2
			C164.8,157.6,162.4,163.6,162.4,170.2 M104.7,150.5c-6.6,0.2-12.5,2.8-17,6.9c4.7,3.8,10.8,6,17.4,5.8c6.6-0.2,12.5-2.8,17-6.9
			c-4.6-3.7-10.3-5.8-16.6-5.8C105.3,150.5,105,150.5,104.7,150.5 M215.4,156.4c4.5,4.1,10.4,6.7,17,6.9c6.6,0.2,12.6-2,17.4-5.8
			c-4.5-4.1-10.4-6.7-17-6.9c-0.3,0-0.5,0-0.8,0C225.7,150.5,220,152.7,215.4,156.4 M47,148.9c3.3,5.1,8.4,9.1,14.7,11
			c6.3,1.9,12.7,1.3,18.3-1.2c-3.3-5.1-8.4-9.1-14.7-11c-2.5-0.8-5.1-1.1-7.6-1.1C53.9,146.6,50.3,147.4,47,148.9 M272.3,147.7
			c-6.3,1.9-11.4,5.9-14.7,11c5.6,2.5,12,3,18.3,1.2c6.3-1.9,11.4-5.9,14.7-11c-3.3-1.5-7-2.3-10.7-2.3
			C277.3,146.6,274.8,147,272.3,147.7 M111.1,133.2c2.1,5.7,6.1,10.8,11.8,14.1c5.7,3.3,12.1,4.2,18.1,3
			c-2.1-5.7-6.1-10.8-11.8-14.1c-4.2-2.4-8.7-3.5-13.1-3.5C114.3,132.7,112.7,132.9,111.1,133.2 M208.4,136.2
			c-5.7,3.3-9.7,8.3-11.8,14.1c6,1.1,12.4,0.2,18.1-3c5.7-3.3,9.7-8.3,11.8-14.1c-1.6-0.3-3.3-0.5-5-0.5
			C217.1,132.7,212.5,133.8,208.4,136.2 M71.6,134.7c3.9,4.7,9.4,8.1,15.8,9.3c6.5,1.1,12.8-0.2,18.1-3.2c-3.9-4.7-9.4-8.1-15.8-9.3
			c-1.6-0.3-3.1-0.4-4.7-0.4C80.1,131,75.6,132.3,71.6,134.7 M247.9,131.4c-6.5,1.2-12,4.6-15.8,9.3c5.3,3.1,11.6,4.4,18.1,3.2
			c6.5-1.2,12-4.6,15.8-9.3c-4-2.3-8.6-3.6-13.4-3.6C251,131,249.5,131.2,247.9,131.4 M137,127.2c1.6,5.9,5.3,11.2,10.7,14.9
			c5.4,3.7,11.8,5,17.8,4.3c-1.6-5.9-5.3-11.2-10.7-14.9c-4.5-3.1-9.7-4.5-14.8-4.5C139,127.1,138,127.1,137,127.2 M182.8,131.6
			c-5.4,3.7-9.1,9-10.7,14.9c6,0.7,12.4-0.7,17.8-4.3c5.4-3.7,9.1-9,10.7-14.9c-1-0.1-2-0.2-3-0.2
			C192.4,127.1,187.3,128.5,182.8,131.6 M90.9,109.1c2.8,5.4,7.4,10,13.4,12.5c6.1,2.5,12.5,2.6,18.3,0.8c-2.8-5.4-7.4-10-13.4-12.5
			c-3.3-1.4-6.8-2-10.2-2C96.3,107.8,93.5,108.2,90.9,109.1 M228.3,109.8c-6.1,2.5-10.7,7-13.4,12.5c5.8,1.9,12.3,1.8,18.3-0.8
			c6.1-2.5,10.7-7,13.4-12.5c-2.6-0.8-5.4-1.3-8.1-1.3C235.1,107.8,231.6,108.5,228.3,109.8 M149.9,113.3
			c2.9,5.9,7.7,10.2,13.3,12.6c1.5-5.9,1-12.3-2-18.2c-2.9-5.9-7.7-10.2-13.3-12.6C146.4,101,146.9,107.5,149.9,113.3 M176.3,107.7
			c-2.9,5.9-3.4,12.3-2,18.2c5.6-2.4,10.4-6.7,13.3-12.6c2.9-5.9,3.4-12.3,2-18.2C184,97.5,179.2,101.8,176.3,107.7 M125.6,90.2
			c-1.9,5.5-2,11.6,0.1,17.4c2.2,6.2,6.4,11.1,11.7,14.1c2.2-5.7,2.5-12.1,0.3-18.3c-2-5.6-5.7-10.1-10.3-13.2H125.6z M210.2,90.2
			c-4.6,3.1-8.3,7.6-10.2,13.2c-2.2,6.2-1.9,12.7,0.3,18.3c5.3-3,9.5-7.9,11.7-14.1c2.1-5.9,1.9-12,0.1-17.4H210.2z"/>
	</defs>
	<clipPath id="SVGID_5_">
		<use xlink:href="#SVGID_4_"  style="overflow:visible;"/>
	</clipPath>
	
		<linearGradient id="SVGID_6_" gradientUnits="userSpaceOnUse" x1="-179.5726" y1="767.3529" x2="-175.9636" y2="767.3529" gradientTransform="matrix(-72.8482 72.8482 -72.8482 -72.8482 43143.2813 69010.8359)">
		<stop  offset="0" style="stop-color:#D3BA7C"/>
		<stop  offset="0.2372" style="stop-color:#765B2B"/>
		<stop  offset="0.5189" style="stop-color:#D3BA7C"/>
		<stop  offset="0.8716" style="stop-color:#8E723C"/>
		<stop  offset="1" style="stop-color:#CEB46E"/>
	</linearGradient>
	<polygon class="st3" points="168.6,-52.4 -68.7,184.9 168.6,422.2 406,184.9 	"/>
</g>
</svg>
